M48
; DRILL file {KiCad 9.0.5} date 2025-12-12T09:54:34+0100
; FORMAT={-:-/ absolute / metric / decimal}
; #@! TF.CreationDate,2025-12-12T09:54:34+01:00
; #@! TF.GenerationSoftware,Kicad,Pcbnew,9.0.5
; #@! TF.FileFunction,Plated,1,2,PTH
FMAT,2
METRIC
; #@! TA.AperFunction,Plated,PTH,ComponentDrill
T1C0.500
; #@! TA.AperFunction,Plated,PTH,ComponentDrill
T2C0.700
%
G90
G05
T1
X172.225Y-59.125
X173.525Y-56.505
X174.765Y-59.125
X176.065Y-56.505
X177.305Y-59.125
X178.605Y-56.505
T2
X124.86Y-136.02
X124.86Y-141.1
X124.86Y-146.18
X126.86Y-126.04
X126.86Y-131.12
X129.94Y-67.44
X129.94Y-69.98
X129.94Y-72.52
X129.94Y-75.06
X129.94Y-77.6
X129.94Y-80.14
X129.94Y-82.68
X129.94Y-85.22
X129.94Y-87.76
X129.94Y-90.3
X129.94Y-92.84
X129.94Y-95.38
X129.94Y-97.92
X129.94Y-100.46
X129.94Y-103.0
X129.94Y-105.54
X129.94Y-108.08
X129.94Y-110.62
X129.94Y-113.16
X129.94Y-115.7
X137.02Y-126.04
X137.02Y-136.2
X137.02Y-148.9
X139.56Y-148.9
X142.1Y-148.9
X149.72Y-143.82
X149.72Y-153.98
X152.26Y-126.04
X152.26Y-136.2
X152.8Y-67.44
X152.8Y-69.98
X152.8Y-72.52
X152.8Y-75.06
X152.8Y-77.6
X152.8Y-80.14
X152.8Y-82.68
X152.8Y-85.22
X152.8Y-87.76
X152.8Y-90.3
X152.8Y-92.84
X152.8Y-95.38
X152.8Y-97.92
X152.8Y-100.46
X152.8Y-103.0
X152.8Y-105.54
X152.8Y-108.08
X152.8Y-110.62
X152.8Y-113.16
X152.8Y-115.7
X154.8Y-126.04
X154.8Y-136.2
X154.8Y-143.82
X154.8Y-153.98
X166.29Y-65.95
X166.29Y-76.11
X166.44Y-85.04
X166.44Y-95.2
X168.86Y-107.04
X171.35Y-85.79
X171.35Y-88.33
X171.35Y-90.87
X171.35Y-93.41
X171.37Y-68.49
X171.37Y-71.03
X171.37Y-73.57
X171.37Y-76.11
X171.4Y-107.04
X173.94Y-107.04
X176.48Y-107.04
X178.97Y-85.79
X178.97Y-88.33
X178.97Y-90.87
X178.97Y-93.41
X178.99Y-68.49
X178.99Y-71.03
X178.99Y-73.57
X178.99Y-76.11
X179.02Y-107.04
X181.56Y-107.04
X184.07Y-65.95
X184.07Y-76.11
X184.22Y-85.04
X184.22Y-95.2
M30
